<svg width="182" height="274" viewBox="0 0 182 274" fill="none" xmlns="http://www.w3.org/2000/svg">
<path d="M7.78747 55.2301C7.61015 54.753 7.43969 54.2726 7.2757 53.7888C7.19808 53.5593 7.32095 53.3104 7.55045 53.2328C7.77995 53.1552 8.03165 53.2833 8.10625 53.5072C8.26848 53.9862 8.43825 54.4661 8.61297 54.9337C9.04282 56.0901 9.51904 57.241 10.0285 58.3547C10.1293 58.5761 10.0324 58.8351 9.81241 58.9359C9.59242 59.0367 9.332 58.9398 9.23108 58.7195C8.71266 57.5865 8.22811 56.4155 7.79088 55.2392C7.7897 55.2361 7.78865 55.2333 7.78747 55.2301ZM5.84622 48.7404C5.83972 48.7229 5.83426 48.7046 5.82985 48.6854C5.43604 46.9772 5.12101 45.2216 4.89269 43.4668C4.86126 43.2264 5.03061 43.0065 5.2711 42.9754C5.51104 42.9442 5.73089 43.1145 5.76226 43.3535C5.98695 45.0802 6.29714 46.8082 6.68423 48.4886C6.73845 48.7246 6.5911 48.9599 6.35531 49.0145C6.13815 49.0645 5.92173 48.9436 5.84622 48.7404ZM11.6542 63.3505C11.5818 63.1557 11.6569 62.9305 11.842 62.821C12.0505 62.6978 12.3195 62.7665 12.4427 62.975C13.3277 64.4699 14.3004 65.929 15.3339 67.3108C15.4798 67.505 15.4394 67.7797 15.2453 67.9247C15.0512 68.0696 14.7768 68.0301 14.6318 67.836C13.5794 66.4287 12.5889 64.9436 11.6883 63.4215C11.6744 63.3986 11.6632 63.3747 11.6542 63.3505ZM4.48469 38.3206C4.46873 38.2777 4.45923 38.2314 4.45759 38.1832C4.39598 36.4338 4.41454 34.6506 4.51321 32.8833C4.52696 32.6415 4.73373 32.4565 4.97533 32.4699C5.21708 32.4836 5.4021 32.6904 5.38874 32.932C5.29173 34.6734 5.27304 36.4295 5.33388 38.1524C5.34242 38.3945 5.15315 38.5974 4.91124 38.6064C4.71744 38.6132 4.54882 38.4932 4.48469 38.3206ZM17.9463 71.7597C17.8864 71.5987 17.9247 71.4108 18.058 71.2861C18.235 71.1208 18.5123 71.1304 18.6776 71.3073C19.8608 72.5733 21.1263 73.7856 22.4394 74.9105C22.6234 75.0684 22.6444 75.3451 22.4872 75.5284C22.3297 75.7123 22.0527 75.7338 21.8689 75.5764C20.5313 74.4307 19.2419 73.1956 18.0369 71.9061C17.9962 71.8624 17.9658 71.8122 17.9463 71.7597ZM29.5746 102.095C29.4932 101.876 29.5987 101.629 29.8165 101.538C30.04 101.445 30.2969 101.55 30.3904 101.774C31.0413 103.329 31.7987 104.912 32.6418 106.479C32.757 106.692 32.6768 106.958 32.4634 107.073C32.2505 107.188 31.9846 107.108 31.8696 106.895C31.013 105.303 30.2432 103.693 29.5812 102.112C29.5789 102.107 29.5767 102.101 29.5746 102.095ZM27.8167 97.1394C27.813 97.1295 27.8096 97.119 27.8065 97.1083C27.3044 95.3802 26.9154 93.6349 26.6507 91.9211C26.6138 91.6819 26.7777 91.4582 27.0172 91.4207C27.2566 91.3833 27.4801 91.5463 27.5176 91.7871C27.7765 93.4636 28.157 95.1714 28.6489 96.8635C28.7163 97.0959 28.5828 97.3392 28.3505 97.407C28.1281 97.472 27.8961 97.3529 27.8167 97.1394ZM34.5306 111.362C34.4605 111.174 34.5278 110.956 34.7032 110.842C34.9062 110.71 35.178 110.768 35.3096 110.972C36.2528 112.426 37.2621 113.866 38.3092 115.254C38.455 115.448 38.4168 115.723 38.2235 115.869C38.0302 116.015 37.7553 115.976 37.6093 115.783C36.5494 114.379 35.5282 112.92 34.5741 111.449C34.5561 111.421 34.5416 111.392 34.5306 111.362ZM26.2364 86.7688C26.2192 86.7227 26.2098 86.6728 26.2091 86.621C26.1887 84.8487 26.2996 83.0619 26.5385 81.3103C26.5711 81.0706 26.7923 80.9024 27.032 80.935C27.2718 80.968 27.4402 81.1886 27.4072 81.4285C27.1743 83.1376 27.0659 84.8813 27.0856 86.6105C27.0884 86.8529 26.8943 87.0513 26.6523 87.054C26.462 87.0568 26.299 86.9374 26.2364 86.7688ZM40.8624 119.755C40.8008 119.589 40.844 119.395 40.9855 119.271C41.1679 119.112 41.4452 119.131 41.604 119.314C42.7408 120.618 43.9417 121.904 45.1736 123.134C45.3445 123.305 45.3454 123.583 45.1739 123.754C45.0027 123.926 44.7249 123.926 44.5536 123.755C43.3073 122.51 42.0927 121.209 40.9426 119.89C40.907 119.849 40.8805 119.803 40.8624 119.755ZM25.9193 78.5904C25.8714 78.4616 25.8843 78.3125 25.9675 78.1906C26.104 77.9906 26.3765 77.9386 26.5768 78.0745C27.3665 78.6117 28.1835 79.1324 29.0052 79.6206C29.6795 80.0215 30.3638 80.4042 31.0388 80.7582C31.2533 80.8703 31.3362 81.1359 31.2235 81.3501C31.1109 81.5644 30.8463 81.6474 30.6316 81.5349C29.9427 81.1738 29.2445 80.7831 28.5568 80.3741C27.7199 79.8766 26.8877 79.3467 26.0833 78.7991C26.0054 78.7467 25.9499 78.6727 25.9193 78.5904ZM27.6784 76.386C27.6462 76.2993 27.641 76.2013 27.6702 76.1058C28.1747 74.4505 28.8231 72.7816 29.597 71.1451C29.7008 70.9264 29.962 70.833 30.181 70.9366C30.3997 71.0404 30.4935 71.3014 30.3899 71.5204C29.6337 73.1182 29.0013 74.7473 28.5092 76.3618C28.4387 76.5934 28.1937 76.7242 27.962 76.6534C27.8257 76.6117 27.7245 76.51 27.6784 76.386ZM48.2978 127.185C48.2436 127.039 48.2687 126.869 48.3782 126.744C48.5374 126.561 48.8141 126.543 48.9967 126.701C50.3005 127.838 51.6645 128.949 53.051 130.004C53.2437 130.151 53.2811 130.425 53.1343 130.618C52.9878 130.811 52.7126 130.848 52.5201 130.702C51.1182 129.635 49.7389 128.512 48.4208 127.363C48.3638 127.313 48.3225 127.252 48.2978 127.185ZM35.229 83.4325C35.194 83.3383 35.191 83.2317 35.2279 83.1302C35.3107 82.9026 35.5621 82.7852 35.7897 82.868C37.4486 83.4712 39.1292 83.9414 40.7846 84.265C41.0223 84.3115 41.1771 84.5417 41.131 84.7792C41.0845 85.0168 40.8542 85.1716 40.6166 85.1251C38.9163 84.7929 37.1915 84.3106 35.4901 83.692C35.3644 83.646 35.2721 83.5486 35.229 83.4325ZM56.6606 133.552C56.6135 133.425 56.6254 133.278 56.7059 133.156C56.8399 132.954 57.1118 132.899 57.3135 133.033C58.7541 133.988 60.2507 134.913 61.7624 135.782C61.9721 135.904 62.0449 136.171 61.9239 136.381C61.8033 136.591 61.5351 136.663 61.3251 136.543C59.7977 135.664 58.2851 134.729 56.8292 133.764C56.7491 133.711 56.6918 133.635 56.6606 133.552ZM32.1448 66.8933C32.0983 66.7681 32.1094 66.6228 32.1876 66.5019C33.1514 65.0134 34.2191 63.5781 35.3615 62.2354C35.5183 62.0509 35.795 62.0286 35.9797 62.1858C36.1642 62.3425 36.1865 62.6193 36.0294 62.8039C34.9114 64.1176 33.8667 65.5222 32.9237 66.9789C32.792 67.1822 32.5209 67.2404 32.3173 67.1088C32.2348 67.0549 32.1766 66.9788 32.1448 66.8933ZM45.5137 85.4078C45.495 85.3578 45.4853 85.3035 45.4864 85.2469C45.4909 85.0046 45.6908 84.8121 45.9328 84.8168C47.6563 84.8485 49.392 84.7223 51.0922 84.4419C51.3308 84.4021 51.5573 84.5649 51.5961 84.803C51.6356 85.0421 51.4738 85.2678 51.235 85.3068C49.4825 85.5962 47.6931 85.7266 45.9167 85.6937C45.7312 85.6899 45.5745 85.5716 45.5137 85.4078ZM65.7699 138.793C65.7293 138.684 65.7321 138.559 65.7879 138.446C65.8955 138.229 66.1584 138.14 66.3757 138.247C67.9247 139.015 69.525 139.748 71.1314 140.426C71.3545 140.52 71.459 140.778 71.3647 141C71.2708 141.224 71.0134 141.328 70.7905 141.234C69.1676 140.549 67.5514 139.809 65.9864 139.033C65.8821 138.982 65.8076 138.894 65.7699 138.793ZM38.9554 58.9075C38.8942 58.7429 38.9355 58.5511 39.0745 58.427C40.423 57.2236 41.8445 56.1341 43.2993 55.1897C43.5022 55.0577 43.7739 55.1156 43.9059 55.3186C44.038 55.5206 43.9801 55.7932 43.777 55.9248C42.3593 56.8459 40.9735 57.9075 39.6584 59.0814C39.4777 59.2427 39.2007 59.2266 39.0395 59.0463C39.0013 59.0044 38.9738 58.9571 38.9554 58.9075ZM75.452 142.883C75.4174 142.79 75.414 142.685 75.4498 142.584C75.5306 142.355 75.781 142.236 76.0094 142.317C77.6418 142.895 79.3186 143.434 80.9929 143.92C81.225 143.987 81.3592 144.23 81.2916 144.463C81.2241 144.696 80.9807 144.83 80.7484 144.762C79.058 144.272 77.3652 143.727 75.7166 143.143C75.5891 143.098 75.4955 143 75.452 142.883ZM55.822 83.6502C55.7379 83.424 55.8525 83.1724 56.0782 83.0871C57.6809 82.4823 59.2505 81.7265 60.7443 80.8397C60.9526 80.7161 61.2216 80.7848 61.345 80.9928C61.4689 81.2019 61.3998 81.4701 61.1919 81.5935C59.6544 82.5062 58.038 83.2848 56.3877 83.9073C56.1611 83.9929 55.9081 83.8784 55.8226 83.6518L55.822 83.6502ZM47.7603 53.2343C47.6792 53.0161 47.7838 52.7704 48.0002 52.6782C48.3879 52.5137 48.7828 52.3565 49.174 52.2111C49.8327 51.9663 50.5032 51.746 51.1677 51.5569C51.8068 51.375 52.4607 51.2229 53.1109 51.1061C53.3492 51.0632 53.5774 51.2219 53.6201 51.4598C53.663 51.6981 53.5048 51.9261 53.2665 51.969C52.6448 52.0811 52.02 52.226 51.4088 52.4003C50.7665 52.5834 50.1176 52.7961 49.4803 53.0329C49.0983 53.1749 48.7191 53.3258 48.3436 53.4853C48.1209 53.5799 47.8632 53.4757 47.7686 53.253C47.765 53.2471 47.7627 53.2407 47.7603 53.2343ZM85.551 145.817C85.5222 145.739 85.515 145.653 85.5348 145.566C85.5892 145.33 85.8245 145.183 86.0605 145.238C87.7481 145.626 89.4748 145.973 91.1928 146.27C91.4316 146.311 91.5912 146.539 91.5504 146.777C91.5091 147.015 91.2823 147.176 91.0439 147.134C89.3102 146.835 87.5674 146.485 85.8644 146.093C85.7142 146.058 85.6007 145.951 85.551 145.817ZM94.8782 161.051C94.5799 160.249 94.3014 159.442 94.0504 158.655C93.9769 158.425 94.1046 158.178 94.3351 158.104C94.5657 158.031 94.8131 158.159 94.8862 158.389C95.3918 159.975 96.0038 161.616 96.7104 163.278C96.807 163.502 96.7016 163.758 96.4786 163.854C96.2558 163.948 95.9982 163.844 95.9037 163.622C95.536 162.758 95.1912 161.893 94.8782 161.051ZM98.134 168.363C98.0576 168.158 98.1456 167.923 98.3453 167.82C98.5608 167.71 98.825 167.795 98.9356 168.011C99.6812 169.467 100.503 170.97 101.448 172.608C101.569 172.818 101.498 173.086 101.288 173.207C101.078 173.328 100.81 173.256 100.689 173.047C99.7363 171.396 98.9076 169.88 98.1548 168.411C98.1472 168.395 98.1399 168.379 98.134 168.363ZM92.7424 153.584C92.7341 153.562 92.7275 153.539 92.7232 153.515C92.3769 151.752 92.1458 149.979 92.0369 148.245C92.0217 148.003 92.2054 147.795 92.4468 147.78C92.6887 147.765 92.897 147.949 92.9118 148.19C93.0185 149.887 93.2448 151.621 93.5839 153.347C93.6305 153.584 93.476 153.815 93.2382 153.862C93.0238 153.903 92.816 153.782 92.7424 153.584ZM64.8202 78.2962C64.7584 78.13 64.8017 77.9361 64.9433 77.8129C66.2897 76.6405 67.4752 75.3723 68.4663 74.0438C68.6109 73.8498 68.886 73.8095 69.0802 73.9546C69.2742 74.0992 69.314 74.3744 69.1693 74.568C68.1407 75.9466 66.9126 77.261 65.5192 78.4739C65.3368 78.6331 65.0596 78.6139 64.9006 78.431C64.8651 78.3903 64.8382 78.3447 64.8202 78.2962ZM103.366 177.49C103.295 177.299 103.366 177.078 103.545 176.966C103.75 176.838 104.021 176.9 104.149 177.106C105.071 178.583 106.032 180.063 107.005 181.506C107.14 181.705 107.088 181.979 106.887 182.115C106.686 182.25 106.413 182.197 106.278 181.996C105.3 180.545 104.333 179.056 103.405 177.57C103.39 177.544 103.376 177.517 103.366 177.49ZM58.0162 51.4794C57.9938 51.419 57.9842 51.352 57.9913 51.2833C58.0153 51.0423 58.2304 50.8664 58.4712 50.8909C60.286 51.0723 62.0391 51.5112 63.6812 52.1957C63.905 52.289 64.0104 52.5457 63.9173 52.7689C63.8243 52.9922 63.5673 53.0981 63.3441 53.0051C61.7815 52.3543 60.1128 51.9367 58.3838 51.7636C58.2117 51.7461 58.0728 51.6317 58.0162 51.4794ZM92.0985 143.114C92.077 143.056 92.0673 142.992 92.0725 142.926C92.2114 141.203 92.4959 139.434 92.9183 137.669C92.9745 137.433 93.2111 137.288 93.4469 137.344C93.6823 137.4 93.8278 137.637 93.7713 137.872C93.3595 139.594 93.0818 141.318 92.947 142.996C92.9276 143.237 92.7163 143.417 92.4747 143.398C92.299 143.384 92.156 143.268 92.0985 143.114ZM109.247 186.214C109.18 186.034 109.238 185.825 109.401 185.707C109.597 185.564 109.871 185.608 110.013 185.804C111.035 187.211 112.096 188.621 113.169 189.995C113.318 190.185 113.284 190.461 113.093 190.61C112.902 190.759 112.626 190.725 112.477 190.534C111.399 189.152 110.331 187.734 109.304 186.319C109.28 186.286 109.261 186.251 109.247 186.214ZM95.914 147.598C95.891 147.536 95.8815 147.468 95.8893 147.397C95.9157 147.157 96.1322 146.983 96.3731 147.009C98.1669 147.206 99.9201 147.329 101.584 147.374C101.826 147.381 102.017 147.582 102.01 147.824C102.004 148.066 101.802 148.257 101.56 148.25C99.8727 148.204 98.0954 148.08 96.2779 147.88C96.1066 147.863 95.97 147.748 95.914 147.598ZM115.72 194.508C115.657 194.339 115.703 194.142 115.85 194.019C116.035 193.864 116.312 193.888 116.467 194.074C117.584 195.407 118.74 196.74 119.904 198.036C120.066 198.216 120.051 198.494 119.871 198.655C119.691 198.817 119.414 198.802 119.252 198.622C118.081 197.318 116.918 195.977 115.795 194.637C115.762 194.597 115.737 194.554 115.72 194.508ZM70.9667 69.8812C70.9308 69.7846 70.9285 69.675 70.9683 69.5715C71.0265 69.4201 71.0824 69.2685 71.1356 69.1157C71.6663 67.5991 71.9249 66.0782 71.9046 64.5958C71.901 64.3537 72.0949 64.1545 72.3371 64.1514C72.5792 64.1478 72.7783 64.3425 72.7815 64.5838C72.8035 66.1692 72.5283 67.7917 71.9636 69.4056C71.9075 69.5663 71.8486 69.7266 71.7874 69.886C71.7004 70.112 71.447 70.2252 71.221 70.1382C71.0981 70.0911 71.0091 69.9952 70.9667 69.8812ZM94.5122 132.908C94.476 132.81 94.4742 132.7 94.515 132.595C95.1596 130.95 95.9221 129.332 96.7812 127.785C96.8989 127.574 97.1656 127.498 97.3775 127.615C97.5891 127.733 97.6655 127.999 97.548 128.211C96.7075 129.723 95.9621 131.306 95.3317 132.915C95.2436 133.141 94.9889 133.252 94.7634 133.164C94.6424 133.116 94.5541 133.021 94.5122 132.908ZM67.5503 55.5169C67.4957 55.3698 67.5219 55.1981 67.6331 55.0726C67.7937 54.8912 68.071 54.875 68.252 55.0357C69.6567 56.2818 70.7608 57.7233 71.5346 59.3206C71.6388 59.5375 71.5492 59.8006 71.331 59.9062C71.1132 60.0115 70.8509 59.9204 70.7455 59.7026C70.0225 58.2104 68.9878 56.8607 67.6701 55.6918C67.6146 55.6423 67.5744 55.5817 67.5503 55.5169ZM122.75 202.335C122.691 202.176 122.727 201.991 122.857 201.865C123.031 201.698 123.309 201.703 123.477 201.878C124.683 203.131 125.928 204.382 127.178 205.595C127.352 205.764 127.355 206.041 127.187 206.215C127.018 206.389 126.741 206.393 126.567 206.224C125.31 205.004 124.057 203.746 122.845 202.486C122.802 202.441 122.77 202.39 122.75 202.335ZM106.418 147.85C106.404 147.812 106.395 147.772 106.392 147.729C106.374 147.488 106.555 147.277 106.796 147.26C108.563 147.128 110.298 146.895 111.954 146.568C112.192 146.521 112.422 146.676 112.469 146.913C112.516 147.15 112.361 147.381 112.124 147.428C110.434 147.762 108.663 147.999 106.861 148.134C106.662 148.149 106.484 148.028 106.418 147.85ZM130.298 209.662C130.243 209.513 130.27 209.339 130.384 209.214C130.547 209.034 130.824 209.021 131.004 209.184C132.293 210.352 133.62 211.515 134.949 212.641C135.133 212.797 135.156 213.074 135 213.259C134.844 213.444 134.567 213.466 134.382 213.31C133.046 212.178 131.711 211.008 130.415 209.833C130.361 209.785 130.322 209.725 130.298 209.662ZM99.6142 123.737C99.564 123.602 99.5816 123.445 99.6744 123.321C100.751 121.887 101.926 120.536 103.167 119.306C103.339 119.136 103.617 119.136 103.787 119.309C103.957 119.48 103.956 119.758 103.785 119.929C102.573 121.129 101.426 122.448 100.376 123.848C100.231 124.041 99.9558 124.081 99.7619 123.935C99.6922 123.883 99.6425 123.813 99.6142 123.737ZM138.325 216.461C138.273 216.322 138.293 216.16 138.392 216.035C138.542 215.845 138.818 215.813 139.008 215.963C140.373 217.043 141.775 218.115 143.175 219.149C143.371 219.292 143.412 219.567 143.268 219.762C143.124 219.957 142.85 219.998 142.655 219.854C141.246 218.815 139.836 217.737 138.464 216.651C138.398 216.6 138.352 216.533 138.325 216.461ZM116.705 145.79C116.703 145.786 116.702 145.783 116.701 145.78C116.622 145.551 116.744 145.301 116.973 145.222C117.262 145.123 117.551 145.02 117.839 144.913C118.541 144.652 119.242 144.366 119.922 144.064C120.528 143.795 121.14 143.497 121.741 143.179C121.955 143.065 122.221 143.147 122.334 143.361C122.448 143.574 122.366 143.84 122.152 143.954C121.532 144.282 120.902 144.589 120.278 144.866C119.581 145.176 118.863 145.468 118.144 145.735C117.849 145.845 117.553 145.95 117.257 146.052C117.033 146.129 116.787 146.012 116.705 145.79ZM107.075 116.372C107.008 116.191 107.066 115.981 107.231 115.863C108.316 115.085 109.451 114.375 110.604 113.753C111.001 113.539 111.41 113.333 111.82 113.142C112.039 113.04 112.3 113.134 112.403 113.354C112.505 113.575 112.41 113.834 112.191 113.937C111.796 114.121 111.403 114.319 111.021 114.525C109.9 115.129 108.797 115.82 107.741 116.576C107.544 116.717 107.27 116.672 107.129 116.475C107.107 116.443 107.088 116.408 107.075 116.372ZM146.787 222.707C146.739 222.578 146.753 222.428 146.837 222.306C146.974 222.106 147.247 222.056 147.447 222.193C148.878 223.178 150.348 224.155 151.816 225.096C152.02 225.226 152.079 225.498 151.949 225.701C151.818 225.905 151.547 225.964 151.343 225.834C149.867 224.888 148.388 223.906 146.95 222.915C146.873 222.863 146.818 222.789 146.787 222.707ZM155.642 228.383C155.598 228.263 155.606 228.124 155.677 228.006C155.801 227.798 156.069 227.73 156.278 227.854C157.769 228.743 159.299 229.621 160.826 230.466C161.038 230.583 161.115 230.85 160.998 231.062C160.88 231.273 160.614 231.35 160.402 231.233C158.867 230.384 157.328 229.501 155.829 228.607C155.74 228.554 155.676 228.474 155.642 228.383ZM125.964 140.885C125.898 140.708 125.952 140.503 126.11 140.383C127.501 139.328 128.804 138.166 129.984 136.93C130.151 136.755 130.429 136.749 130.604 136.916C130.779 137.083 130.786 137.36 130.619 137.536C129.407 138.806 128.068 139.999 126.64 141.082C126.447 141.228 126.172 141.19 126.026 140.997C126 140.962 125.979 140.924 125.964 140.885ZM116.572 112.02C116.564 112 116.558 111.98 116.554 111.959C116.503 111.722 116.653 111.489 116.89 111.438C118.657 111.057 120.448 110.879 122.215 110.909C122.457 110.914 122.65 111.113 122.646 111.355C122.642 111.597 122.442 111.79 122.2 111.786C120.5 111.757 118.776 111.928 117.075 112.295C116.859 112.341 116.646 112.221 116.572 112.02ZM164.846 233.473C164.805 233.362 164.808 233.234 164.866 233.121C164.977 232.905 165.241 232.82 165.457 232.93C166.843 233.64 168.262 234.341 169.673 235.013C169.892 235.117 169.985 235.379 169.88 235.598C169.776 235.816 169.514 235.909 169.296 235.805C167.877 235.129 166.451 234.424 165.057 233.711C164.955 233.658 164.883 233.572 164.846 233.473ZM133.168 133.278C133.121 133.152 133.133 133.006 133.212 132.885C134.206 131.364 134.981 129.817 135.516 128.287C135.596 128.058 135.846 127.938 136.075 128.017C136.303 128.098 136.424 128.348 136.344 128.576C135.785 130.174 134.978 131.785 133.946 133.364C133.814 133.567 133.542 133.624 133.339 133.492C133.258 133.439 133.2 133.363 133.168 133.278ZM126.989 112.25C126.958 112.166 126.952 112.07 126.979 111.977C127.045 111.744 127.288 111.609 127.521 111.676C129.355 112.2 130.993 112.973 132.391 113.971C132.588 114.112 132.634 114.386 132.494 114.583C132.353 114.78 132.079 114.826 131.882 114.685C130.565 113.745 129.017 113.016 127.28 112.519C127.141 112.479 127.036 112.376 126.989 112.25ZM136.427 123.43C136.41 123.384 136.4 123.334 136.399 123.281C136.398 123.131 136.394 122.981 136.388 122.832C136.317 121.245 135.921 119.752 135.217 118.423C135.104 118.211 135.185 117.944 135.399 117.83C135.613 117.717 135.878 117.799 135.992 118.012C136.757 119.457 137.188 121.077 137.264 122.794C137.271 122.953 137.275 123.114 137.276 123.274C137.278 123.517 137.084 123.714 136.842 123.716C136.652 123.717 136.489 123.599 136.427 123.43Z" fill="#010F40"/>
<path d="M169.147 241.704L175.036 230.966L180.764 239.068L169.147 241.704Z" fill="#010F40"/>
</svg>
