<svg width="23" height="25" viewBox="0 0 23 25" fill="none" xmlns="http://www.w3.org/2000/svg">
<path d="M16.0066 19.5736C15.233 20.1673 14.8585 21.0866 14.9222 21.9919C14.0195 22.2512 13.0818 22.3892 12.131 22.3892C9.43404 22.3892 6.89861 21.3389 4.99181 19.4313C3.085 17.5246 2.03381 14.9893 2.03381 12.2924C2.03381 9.59561 3.08413 7.0603 4.99181 5.15357C6.89861 3.24684 9.43404 2.1957 12.131 2.1957C13.0818 2.1957 14.0195 2.33364 14.9222 2.59293C14.8585 3.49828 15.233 4.41759 16.0066 5.01126C17.2315 5.95153 18.9882 5.72105 19.9285 4.49529C20.8688 3.27042 20.6383 1.51385 19.4125 0.573587C18.2609 -0.310806 16.6483 -0.147547 15.6774 0.891375C14.5346 0.536919 13.3428 0.336118 12.1319 0.336118C8.93814 0.336118 5.93562 1.57933 3.67696 3.83702C1.41918 6.09558 0.175903 9.0971 0.175903 12.2916C0.175903 15.4852 1.41918 18.4876 3.67696 20.7461C5.93562 23.0038 8.93814 24.247 12.1319 24.247C13.3428 24.247 14.5346 24.0462 15.6774 23.6918C16.6492 24.7307 18.2609 24.8931 19.4125 24.0096C20.6374 23.0693 20.8688 21.3136 19.9285 20.0878C18.9873 18.8638 17.2315 18.6334 16.0066 19.5736Z" fill="#003C7A"/>
<path d="M9.30523 15.3768C8.43564 15.3768 7.7852 15.0817 7.35303 14.4907C6.92085 13.9005 6.7052 13.1113 6.7052 12.1256C6.7052 11.1391 6.92085 10.3507 7.35303 9.75967C7.7852 9.1695 8.43564 8.87354 9.30523 8.87354C10.1748 8.87354 10.8253 9.16862 11.2574 9.75967C11.6887 10.3507 11.9053 11.1391 11.9053 12.1256C11.9053 13.1122 11.6896 13.9005 11.2574 14.4907C10.8261 15.0817 10.1748 15.3768 9.30523 15.3768ZM8.37889 10.6091C8.1807 10.9933 8.08204 11.4996 8.08204 12.1291C8.08204 12.7594 8.1807 13.2658 8.37889 13.6491C8.57708 14.0332 8.88615 14.2253 9.30523 14.2253C9.72431 14.2253 10.0343 14.0332 10.2316 13.6491C10.4298 13.2658 10.5284 12.7586 10.5284 12.1291C10.5284 11.4996 10.4298 10.9933 10.2316 10.6091C10.0334 10.2259 9.72431 10.0338 9.30523 10.0338C8.88528 10.0338 8.57708 10.2259 8.37889 10.6091Z" fill="#003C7A"/>
<path d="M13.0835 10.2136V9.01758H16.9338V9.98928L15.6469 11.4551C16.1507 11.5389 16.54 11.7502 16.8159 12.0898C17.0918 12.4286 17.2298 12.8197 17.2298 13.2632C17.2298 13.9232 17.0063 14.44 16.5601 14.8146C16.1131 15.1891 15.5421 15.3768 14.8463 15.3768C14.1504 15.3768 13.4467 15.1306 12.7325 14.6391L13.3079 13.5234C13.9016 13.9433 14.4324 14.1528 14.9004 14.1528C15.1824 14.1528 15.4147 14.0838 15.5971 13.9459C15.7805 13.808 15.8713 13.6089 15.8713 13.3479C15.8713 13.0868 15.7656 12.8799 15.5561 12.7271C15.3466 12.5744 15.0558 12.4975 14.6839 12.4975C14.4857 12.4975 14.2072 12.5543 13.8475 12.6686V11.6341L15.0532 10.2128L13.0835 10.2136Z" fill="#003C7A"/>
</svg>
