<svg width="21" height="26" viewBox="0 0 21 26" fill="none" xmlns="http://www.w3.org/2000/svg">
<path d="M15.83 20.2821C15.0565 20.8758 14.682 21.7951 14.7457 22.7004C13.843 22.9597 12.9053 23.0977 11.9546 23.0977C9.25774 23.0977 6.72242 22.0474 4.8157 20.1398C2.90897 18.2322 1.85783 15.6978 1.85783 13.0009C1.85783 10.3041 2.9081 7.76879 4.8157 5.86207C6.72242 3.95534 9.25774 2.9042 11.9546 2.9042C12.9053 2.9042 13.843 3.04214 14.7457 3.30143C14.682 4.20678 15.0565 5.12609 15.83 5.71976C17.0549 6.66003 18.8115 6.42954 19.7517 5.20379C20.692 3.97891 20.4615 2.22235 19.2358 1.28208C18.0842 0.39769 16.4717 0.56095 15.5009 1.59987C14.3581 1.24542 13.1664 1.04461 11.9555 1.04461C8.76186 1.04461 5.75946 2.28783 3.5009 4.54552C1.24321 6.80408 0 9.8056 0 13.0001C0 16.1937 1.24321 19.1961 3.5009 21.4546C5.75946 23.7123 8.76186 24.9555 11.9555 24.9555C13.1664 24.9555 14.3581 24.7547 15.5009 24.4003C16.4726 25.4392 18.0842 25.6016 19.2358 24.718C20.4606 23.7778 20.692 22.0221 19.7517 20.7963C18.8115 19.5723 17.0549 19.3418 15.83 20.2821Z" fill="#003C7A"/>
<path d="M9.97394 16.0853C9.10439 16.0853 8.45397 15.7902 8.02181 15.1992C7.58966 14.609 7.37402 13.8198 7.37402 12.8341C7.37402 11.8476 7.58966 11.0592 8.02181 10.4682C8.45397 9.87799 9.10439 9.58203 9.97394 9.58203C10.8435 9.58203 11.4939 9.87712 11.9261 10.4682C12.3573 11.0592 12.5739 11.8476 12.5739 12.8341C12.5739 13.8207 12.3573 14.609 11.9261 15.1992C11.4948 15.7902 10.8435 16.0853 9.97394 16.0853ZM9.04764 11.3176C8.84946 11.7018 8.75081 12.2081 8.75081 12.8376C8.75081 13.4679 8.84946 13.9743 9.04764 14.3576C9.24582 14.7417 9.55488 14.9338 9.97394 14.9338C10.393 14.9338 10.7029 14.7417 10.9002 14.3576C11.0984 13.9743 11.1971 13.4671 11.1971 12.8376C11.1971 12.2081 11.0984 11.7018 10.9002 11.3176C10.7021 10.9344 10.393 10.7423 9.97394 10.7423C9.55401 10.7423 9.24582 10.9344 9.04764 11.3176Z" fill="#003C7A"/>
<path d="M13.3564 9.72607H15.9022V16.0137H14.5534V10.923H13.3564V9.72607Z" fill="#003C7A"/>
</svg>
