<svg width="23" height="28" viewBox="0 0 23 28" fill="none" xmlns="http://www.w3.org/2000/svg">
<path d="M16.8298 21.4485C16.0563 22.0422 15.6817 22.9615 15.7455 23.8669C14.8427 24.1262 13.905 24.2641 12.9542 24.2641C10.2573 24.2641 7.72185 23.2138 5.81505 21.3061C3.90824 19.3994 2.85705 16.8639 2.85705 14.167C2.85705 11.4701 3.90737 8.93469 5.81505 7.0279C7.72185 5.1211 10.2573 4.06992 12.9542 4.06992C13.905 4.06992 14.8427 4.20787 15.7455 4.46717C15.6817 5.37255 16.0563 6.2919 16.8298 6.88559C18.0548 7.82589 19.8114 7.5954 20.7517 6.3696C21.692 5.14468 21.4615 3.38805 20.2357 2.44775C19.0841 1.56333 17.4715 1.72659 16.5007 2.76555C15.3578 2.41108 14.1661 2.21028 12.9551 2.21028C9.76138 2.21028 6.75886 3.45353 4.5002 5.7113C2.24242 7.96994 0.999146 10.9724 0.999146 14.1653C0.999146 17.359 2.24242 20.3615 4.5002 22.6201C6.75886 24.8779 9.76138 26.1211 12.9551 26.1211C14.1661 26.1211 15.3578 25.9203 16.5007 25.5659C17.4724 26.6048 19.0841 26.7672 20.2357 25.8837C21.4607 24.9434 21.692 23.1876 20.7517 21.9618C19.8114 20.7386 18.0548 20.5082 16.8298 21.4485Z" fill="#003C7A"/>
<path d="M9.95467 17.2506C9.08508 17.2506 8.43462 16.9555 8.00244 16.3644C7.57027 15.7742 7.35461 14.9858 7.35461 13.9993C7.35461 13.0127 7.57027 12.2243 8.00244 11.6332C8.43462 11.043 9.08508 10.7471 9.95467 10.7471C10.8243 10.7471 11.4747 11.0422 11.9069 11.6332C12.3382 12.2243 12.5547 13.0127 12.5547 13.9993C12.5547 14.9858 12.3382 15.7742 11.9069 16.3644C11.4756 16.9555 10.8243 17.2506 9.95467 17.2506ZM9.02833 12.4827C8.83014 12.8669 8.73148 13.3733 8.73148 14.0028C8.73148 14.6331 8.83014 15.1395 9.02833 15.5228C9.22652 15.9069 9.53557 16.099 9.95552 16.099C10.3746 16.099 10.6845 15.9069 10.8819 15.5228C11.0801 15.1395 11.1787 14.6323 11.1787 14.0028C11.1787 13.3733 11.0801 12.8669 10.8819 12.4827C10.6837 12.0995 10.3746 11.9074 9.95552 11.9074C9.53557 11.9074 9.22652 12.0995 9.02833 12.4827Z" fill="#003C7A"/>
<path d="M16.2429 11.9528C15.8526 11.9528 15.5514 12.0829 15.3384 12.3439C15.1253 12.605 14.9952 12.9603 14.9472 13.4099C15.3366 13.1576 15.7505 13.0319 16.1887 13.0319C16.7763 13.0319 17.2661 13.224 17.6599 13.6073C18.0528 13.9905 18.2492 14.5022 18.2492 15.1413C18.2492 15.7795 18.0379 16.2911 17.6145 16.6744C17.1919 17.0585 16.6593 17.2506 16.0176 17.2506C15.5741 17.2506 15.1882 17.165 14.8617 16.9939C14.5343 16.8237 14.2819 16.5844 14.1012 16.2789C13.7415 15.6852 13.5616 14.9413 13.5616 14.0482C13.5616 13.4728 13.6324 12.9673 13.7729 12.5325C13.9135 12.0977 14.1073 11.7537 14.3527 11.5023C14.8329 10.9985 15.4257 10.7471 16.1338 10.7471C16.4271 10.7471 16.7082 10.7907 16.9745 10.8772C17.2417 10.9645 17.4468 11.0526 17.5909 11.1426C17.735 11.2325 17.8939 11.3469 18.0676 11.4848L17.4023 12.474C17.3657 12.4382 17.3133 12.3902 17.2443 12.33C17.1753 12.2697 17.0391 12.192 16.8348 12.096C16.6323 12.0008 16.435 11.9528 16.2429 11.9528ZM16.0587 14.2193C15.7802 14.2193 15.5462 14.3014 15.3567 14.4664C15.1681 14.6314 15.0738 14.8462 15.0738 15.1098C15.0738 15.3735 15.1638 15.6005 15.3436 15.7891C15.5235 15.9777 15.7479 16.0728 16.0176 16.0728C16.2874 16.0728 16.5127 15.989 16.6925 15.8205C16.8724 15.6529 16.9623 15.4355 16.9623 15.1683C16.9623 14.9012 16.8811 14.6768 16.7196 14.4934C16.5572 14.311 16.3372 14.2193 16.0587 14.2193Z" fill="#003C7A"/>
</svg>
