<svg width="21" height="26" viewBox="0 0 21 26" fill="none" xmlns="http://www.w3.org/2000/svg">
<path d="M15.8289 20.2821C15.0553 20.8758 14.6807 21.7951 14.7445 22.7004C13.8417 22.9597 12.904 23.0977 11.9533 23.0977C9.25631 23.0977 6.72087 22.0474 4.81407 20.1398C2.90726 18.2322 1.85607 15.6978 1.85607 13.0009C1.85607 10.3041 2.90639 7.76879 4.81407 5.86207C6.72087 3.95534 9.25631 2.9042 11.9533 2.9042C12.904 2.9042 13.8417 3.04214 14.7445 3.30143C14.6807 4.20678 15.0553 5.12609 15.8289 5.71976C17.0538 6.66003 18.8104 6.42954 19.7507 5.20379C20.691 3.97891 20.4605 2.22235 19.2347 1.28208C18.0831 0.39769 16.4706 0.56095 15.4997 1.59987C14.3568 1.24542 13.1651 1.04461 11.9541 1.04461C8.76038 1.04461 5.75787 2.28783 3.49921 4.54552C1.24143 6.80408 -0.00183105 9.8056 -0.00183105 13.0001C-0.00183105 16.1937 1.24143 19.1961 3.49921 21.4546C5.75787 23.7123 8.76038 24.9555 11.9541 24.9555C13.1651 24.9555 14.3568 24.7547 15.4997 24.4003C16.4714 25.4392 18.0831 25.6016 19.2347 24.718C20.4597 23.7778 20.691 22.0221 19.7507 20.7963C18.8104 19.5723 17.0547 19.3418 15.8289 20.2821Z" fill="#003C7A"/>
<path d="M9.06792 16.0853C8.19834 16.0853 7.5479 15.7902 7.11572 15.1992C6.68355 14.609 6.4679 13.8198 6.4679 12.8341C6.4679 11.8476 6.68355 11.0592 7.11572 10.4682C7.5479 9.87799 8.19834 9.58203 9.06792 9.58203C9.93751 9.58203 10.588 9.87712 11.0201 10.4682C11.4514 11.0592 11.668 11.8476 11.668 12.8341C11.668 13.8207 11.4514 14.609 11.0201 15.1992C10.588 15.7902 9.93664 16.0853 9.06792 16.0853ZM8.14072 11.3176C7.94253 11.7018 7.84387 12.2081 7.84387 12.8376C7.84387 13.4679 7.94253 13.9743 8.14072 14.3576C8.33891 14.7417 8.64797 14.9338 9.06792 14.9338C9.487 14.9338 9.79606 14.7417 9.99425 14.3576C10.1924 13.9743 10.2911 13.4671 10.2911 12.8376C10.2911 12.2081 10.1924 11.7018 9.99425 11.3176C9.79606 10.9344 9.487 10.7423 9.06792 10.7423C8.64797 10.7423 8.33891 10.9344 8.14072 11.3176Z" fill="#003C7A"/>
<path d="M15.3326 12.1766C15.4915 11.9514 15.5709 11.734 15.5709 11.5244C15.5709 11.3149 15.5019 11.1394 15.364 10.998C15.226 10.8574 15.0488 10.7867 14.8331 10.7867C14.4368 10.7867 14.0622 11.0687 13.7086 11.6318L12.5841 10.9666C12.8775 10.5108 13.2005 10.166 13.5506 9.93202C13.9016 9.69804 14.3486 9.58105 14.8908 9.58105C15.4338 9.58105 15.9105 9.75392 16.3209 10.0979C16.7312 10.4427 16.9373 10.9124 16.9373 11.5061C16.9373 11.83 16.8552 12.1399 16.6902 12.4368C16.5252 12.7336 16.2205 13.1134 15.777 13.5752L14.6437 14.7538H17.1259V16.0128H12.6915V14.9695L14.5355 13.0802C14.9083 12.7031 15.1737 12.4019 15.3326 12.1766Z" fill="#003C7A"/>
</svg>
