<svg width="23" height="28" viewBox="0 0 23 28" fill="none" xmlns="http://www.w3.org/2000/svg">
<path d="M16.8298 21.4485C16.0563 22.0422 15.6817 22.9615 15.7455 23.8669C14.8427 24.1262 13.905 24.2641 12.9542 24.2641C10.2573 24.2641 7.72186 23.2138 5.81505 21.3061C3.90824 19.3994 2.85705 16.8639 2.85705 14.167C2.85705 11.4701 3.90737 8.93469 5.81505 7.0279C7.72186 5.1211 10.2573 4.06992 12.9542 4.06992C13.905 4.06992 14.8427 4.20787 15.7455 4.46717C15.6817 5.37255 16.0563 6.2919 16.8298 6.88559C18.0548 7.82589 19.8114 7.5954 20.7517 6.3696C21.692 5.14468 21.4615 3.38805 20.2357 2.44775C19.0841 1.56333 17.4715 1.72659 16.5007 2.76555C15.3578 2.41108 14.1661 2.21028 12.9551 2.21028C9.76138 2.21028 6.75885 3.45353 4.50019 5.7113C2.24241 7.96994 0.999146 10.9724 0.999146 14.1653C0.999146 17.359 2.24241 20.3615 4.50019 22.6201C6.75885 24.8779 9.76138 26.1211 12.9551 26.1211C14.1661 26.1211 15.3578 25.9203 16.5007 25.5659C17.4724 26.6048 19.0841 26.7672 20.2357 25.8837C21.4606 24.9434 21.692 23.1876 20.7517 21.9618C19.8105 20.7386 18.0548 20.5082 16.8298 21.4485Z" fill="#003C7A"/>
<path d="M10.1431 17.2506C9.27353 17.2506 8.62309 16.9555 8.19092 16.3644C7.75875 15.7742 7.54309 14.9858 7.54309 13.9993C7.54309 13.0127 7.75875 12.2243 8.19092 11.6332C8.62309 11.043 9.27353 10.7471 10.1431 10.7471C11.0127 10.7471 11.6632 11.0422 12.0953 11.6332C12.5266 12.2243 12.7432 13.0127 12.7432 13.9993C12.7432 14.9858 12.5266 15.7742 12.0953 16.3644C11.664 16.9555 11.0127 17.2506 10.1431 17.2506ZM9.21679 12.4827C9.0186 12.8669 8.91993 13.3733 8.91993 14.0028C8.91993 14.6331 9.0186 15.1395 9.21679 15.5228C9.41498 15.9069 9.72405 16.099 10.144 16.099C10.5631 16.099 10.8722 15.9069 11.0703 15.5228C11.2685 15.1395 11.3672 14.6323 11.3672 14.0028C11.3672 13.3733 11.2685 12.8669 11.0703 12.4827C10.8722 12.0995 10.5631 11.9074 10.144 11.9074C9.72318 11.9074 9.41498 12.0995 9.21679 12.4827Z" fill="#003C7A"/>
<path d="M16.0981 14.462V13.3645H17.447V14.462H18.1577V15.6764H17.447V17.179H16.0981V15.6764H13.5706V14.606L15.81 10.8911H17.3388L15.2067 14.462H16.0981Z" fill="#003C7A"/>
</svg>
