<svg width="23" height="28" viewBox="0 0 23 28" fill="none" xmlns="http://www.w3.org/2000/svg">
<path d="M16.8298 20.9485C16.0563 21.5422 15.6817 22.4615 15.7455 23.3669C14.8436 23.6262 13.905 23.7641 12.9542 23.7641C10.2573 23.7641 7.72186 22.7138 5.81505 20.8061C3.90824 18.8994 2.85705 16.3639 2.85705 13.667C2.85705 10.9701 3.90737 8.43469 5.81505 6.5279C7.72186 4.6211 10.2573 3.56992 12.9542 3.56992C13.905 3.56992 14.8427 3.70787 15.7455 3.96717C15.6817 4.87255 16.0563 5.7919 16.8298 6.38559C18.0548 7.32589 19.8114 7.0954 20.7517 5.8696C21.692 4.64468 21.4615 2.88805 20.2357 1.94775C19.0841 1.06333 17.4715 1.22659 16.5007 2.26555C15.3578 1.91108 14.1661 1.71028 12.9551 1.71028C9.76138 1.71028 6.75885 2.95353 4.50019 5.2113C2.24241 7.46994 0.999146 10.4724 0.999146 13.6653C0.999146 16.859 2.24241 19.8615 4.50019 22.1201C6.75885 24.3779 9.76138 25.6211 12.9551 25.6211C14.1661 25.6211 15.3578 25.4203 16.5007 25.0659C17.4724 26.1048 19.0841 26.2672 20.2357 25.3837C21.4606 24.4434 21.692 22.6876 20.7517 21.4618C19.8114 20.2386 18.0548 20.0082 16.8298 20.9485Z" fill="#003C7A"/>
<path d="M10.1069 16.7507C9.23728 16.7507 8.58684 16.4556 8.15467 15.8646C7.72249 15.2744 7.50684 14.486 7.50684 13.4994C7.50684 12.5128 7.72249 11.7244 8.15467 11.1334C8.58684 10.5432 9.23728 10.2472 10.1069 10.2472C10.9765 10.2472 11.6269 10.5423 12.0591 11.1334C12.4904 11.7244 12.7069 12.5128 12.7069 13.4994C12.7069 14.486 12.4913 15.2744 12.0591 15.8646C11.6269 16.4556 10.9765 16.7507 10.1069 16.7507ZM9.18052 11.9829C8.98233 12.367 8.88368 12.8734 8.88368 13.5029C8.88368 14.1332 8.98233 14.6396 9.18052 15.0229C9.37871 15.4071 9.68779 15.5991 10.1077 15.5991C10.5268 15.5991 10.8359 15.4071 11.0341 15.0229C11.2323 14.6396 11.3309 14.1324 11.3309 13.5029C11.3309 12.8734 11.2323 12.367 11.0341 11.9829C10.8359 11.5996 10.5268 11.4075 10.1077 11.4075C9.68692 11.4075 9.37871 11.5996 9.18052 11.9829Z" fill="#003C7A"/>
<path d="M17.7617 10.3912V11.6057H15.2787V12.6586C15.4646 12.6045 15.6777 12.5774 15.9169 12.5774C16.5228 12.5774 17.0449 12.7608 17.4823 13.1257C17.9197 13.4915 18.1389 13.9848 18.1389 14.6056C18.1389 15.2263 17.9128 15.7388 17.4596 16.1439C17.0065 16.5482 16.4477 16.7507 15.7825 16.7507C14.9303 16.7507 14.2196 16.4355 13.6504 15.806L14.3881 14.7811C14.4423 14.8352 14.5147 14.9007 14.6038 14.9792C14.6937 15.0569 14.8587 15.1608 15.0979 15.2892C15.338 15.4184 15.5773 15.483 15.8174 15.483C16.0575 15.483 16.2705 15.4114 16.4556 15.2674C16.6416 15.1233 16.7341 14.9103 16.7341 14.6283C16.7341 14.3463 16.6337 14.1289 16.4329 13.9761C16.2321 13.8233 15.9728 13.7465 15.6541 13.7465C15.3363 13.7465 14.967 13.8608 14.5479 14.0887L13.963 13.4592V10.3921L17.7617 10.3912Z" fill="#003C7A"/>
</svg>
