<svg width="22" height="22" viewBox="0 0 22 22" fill="none" xmlns="http://www.w3.org/2000/svg">
<path d="M7.57806 13.4568C7.40939 13.4568 7.29573 13.4733 7.23706 13.4898V14.5696C7.30673 14.5861 7.39381 14.5907 7.51389 14.5907C7.95298 14.5907 8.22339 14.3689 8.22339 13.994C8.22339 13.6585 7.99056 13.4568 7.57806 13.4568ZM10.7745 13.4678C10.5911 13.4678 10.472 13.4843 10.4014 13.5008V15.8933C10.472 15.9098 10.5856 15.9098 10.6883 15.9098C11.4372 15.9153 11.9249 15.5028 11.9249 14.6301C11.9304 13.8693 11.4858 13.4678 10.7745 13.4678Z" fill="#EC2024"/>
<path d="M12.8333 1.83325H5.49996C5.01373 1.83325 4.54741 2.02641 4.2036 2.37022C3.85978 2.71404 3.66663 3.18036 3.66663 3.66659V18.3333C3.66663 18.8195 3.85978 19.2858 4.2036 19.6296C4.54741 19.9734 5.01373 20.1666 5.49996 20.1666H16.5C16.9862 20.1666 17.4525 19.9734 17.7963 19.6296C18.1401 19.2858 18.3333 18.8195 18.3333 18.3333V7.33325L12.8333 1.83325ZM8.70646 14.8408C8.42321 15.1066 8.00521 15.2258 7.51846 15.2258C7.42406 15.2275 7.32967 15.222 7.23613 15.2093V16.5164H6.41663V12.9084C6.78648 12.8534 7.16016 12.8283 7.53404 12.8333C8.04463 12.8333 8.40763 12.9304 8.65238 13.1257C8.88521 13.3108 9.04288 13.6143 9.04288 13.9718C9.04196 14.3311 8.92279 14.6345 8.70646 14.8408ZM12.1962 16.0828C11.8112 16.4028 11.2255 16.5549 10.5095 16.5549C10.0805 16.5549 9.77713 16.5274 9.57088 16.4999V12.9093C9.94086 12.8555 10.3144 12.8301 10.6883 12.8333C11.3822 12.8333 11.8332 12.9579 12.1852 13.2238C12.5656 13.5061 12.804 13.9562 12.804 14.6024C12.804 15.3018 12.5482 15.7849 12.1962 16.0828ZM15.5833 13.5391H14.179V14.3742H15.4916V15.047H14.179V16.5173H13.3485V12.8608H15.5833V13.5391ZM12.8333 8.24992H11.9166V3.66659L16.5 8.24992H12.8333Z" fill="#EC2024"/>
</svg>
